<?xml version="1.0" encoding="utf-8"?>
<!-- Generator: Adobe Illustrator 25.4.0, SVG Export Plug-In . SVG Version: 6.00 Build 0)  -->
<svg version="1.1" id="Layer_1" xmlns="http://www.w3.org/2000/svg" xmlns:xlink="http://www.w3.org/1999/xlink" x="0px" y="0px"
	 viewBox="0 0 492.62 169.11" style="enable-background:new 0 0 492.62 169.11;" xml:space="preserve">
<style type="text/css">
	.st0{fill:none;}
	.st1{fill:#1F9DD9;}
	.st2{fill:#A7DEF6;}
	.st3{fill:#67C5EE;}
</style>
<g>
	<g>
		<path d="M430.54,64.14c0,2.26-1.83,9.06-4.09,9.06s-4.09-6.79-4.09-9.06s1.83-4.09,4.09-4.09S430.54,61.88,430.54,64.14z"/>
		<path d="M442.92,64.14c0,2.26-1.83,9.06-4.09,9.06c-2.26,0-4.09-6.79-4.09-9.06s1.83-4.09,4.09-4.09
			C441.08,60.05,442.92,61.88,442.92,64.14z"/>
		<path d="M283.2,80.45c-4.52-4.09-9.73-6.16-15.52-6.16c-7.49,0-13.96,2.66-19.26,7.9c-0.04,0.04-0.09,0.08-0.13,0.12
			c-2.14,2.14-3.84,4.49-5.13,7.01c-1.91,3.74-2.9,7.88-2.9,12.39c0,7.55,2.7,14.07,8.02,19.4c5.32,5.32,11.85,8.02,19.4,8.02
			c5.79,0,11.01-2.09,15.52-6.2v4.99h11.29V78.12H283.2V80.45z M278.93,112.95c-3.11,3.08-6.9,4.65-11.26,4.65
			c-4.39,0-8.18-1.57-11.28-4.67c-3.1-3.1-4.67-6.87-4.67-11.23c0-4.39,1.57-8.17,4.67-11.25c3.1-3.08,6.89-4.65,11.28-4.65
			c4.36,0,8.14,1.56,11.25,4.64c2.31,2.34,3.76,4.98,4.27,7.7l0.01,6.98C282.68,107.98,281.24,110.62,278.93,112.95z"/>
		<path d="M315.13,81.74v-5.26h-11.61v51.37h11.61v-26.37c0.12-4.22,1.75-7.91,4.85-10.97c2.01-2.01,4.76-3.12,8.19-3.3l0.76-0.04
			v-12l-0.84,0.04C323.09,75.46,318.74,77.65,315.13,81.74z"/>
		<polygon points="369.78,78.12 355.29,78.12 348.93,85.9 348.93,60.05 337.65,60.05 337.65,127.86 348.93,127.86 348.93,105.32 
			361.24,127.86 374.59,127.86 356.03,95.08 		"/>
		<path d="M407.5,82.24c1.63-1.63,3.37-2.98,5.21-4.11h-18.03V60.05h-11.24v18.08h-8.66v11.24h8.66v38.5h11.24v-38.5h7.63
			C403.6,86.8,405.32,84.41,407.5,82.24z"/>
		<path d="M453.58,83.18c-1.62-1.59-3.37-2.92-5.21-4.03c-4.2-2.54-8.94-3.85-14.19-3.85c-5.23,0-9.96,1.31-14.16,3.85
			c-1.84,1.11-3.59,2.44-5.21,4.03c-2.18,2.13-3.89,4.47-5.19,6.98c-1.88,3.65-2.86,7.67-2.86,12.04c0,7.39,2.71,13.79,8.05,19.03
			c5.34,5.23,11.86,7.89,19.37,7.89c7.55,0,14.07-2.65,19.4-7.89c5.32-5.23,8.02-11.63,8.02-19.03c0-4.38-0.97-8.4-2.85-12.04
			C457.46,87.66,455.75,85.32,453.58,83.18z M445.46,113.24c-3.1,3.02-6.89,4.55-11.28,4.55s-8.18-1.53-11.28-4.55
			c-3.1-3.02-4.67-6.73-4.67-11.03c0-4.27,1.57-7.98,4.67-11.03c0.37-0.36,0.74-0.7,1.13-1.02c2.87-2.37,6.28-3.58,10.15-3.58
			c3.87,0,7.27,1.21,10.15,3.58c0.39,0.32,0.76,0.65,1.13,1.02c3.1,3.05,4.67,6.76,4.67,11.03
			C450.13,106.51,448.56,110.22,445.46,113.24z"/>
		<path d="M491.81,76.91c-4.83,0.23-9.04,2.35-12.54,6.31v-5.09h-11.24v49.73h11.24v-25.52c0.12-4.08,1.69-7.66,4.69-10.62
			c1.94-1.94,4.61-3.02,7.92-3.19l0.73-0.04V76.87L491.81,76.91z"/>
		<polygon points="232.01,87.61 196.49,87.61 196.49,68.3 236.79,68.3 236.79,56.87 183.58,56.87 183.58,127.86 196.49,127.86 
			196.49,99.04 232.01,99.04 		"/>
	</g>
	<g>
		<path class="st0" d="M86.72,26.27L53.06,43.78l10.95-16.69c-30.1,6.02-53.09,32.84-53.09,65.13c0,36.67,29.83,66.49,66.49,66.49
			s66.49-29.83,66.49-66.49C143.91,58.83,119.01,30.92,86.72,26.27z M119.55,71.42c-0.82,0.55-2.19,1.09-3.83,1.09h-6.29H65.37
			v15.05l38.04,0.27c1.09,0.27,2.19,0.55,3.01,1.09c0.82,0.82,1.92,2.19,1.92,4.93c0,1.92-0.55,3.56-1.64,4.65
			c-1.09,1.09-2.74,1.64-4.65,1.64H65.37v17.24h9.3c2.19,0,3.83,0.55,4.93,1.64c1.37,1.09,1.92,2.74,1.92,4.65s-0.55,3.56-1.64,4.65
			c-1.09,1.09-2.74,1.64-4.65,1.64H42.66c-1.92,0-3.56-0.55-4.65-1.64c-1.09-1.09-1.64-2.74-1.64-4.65c0-2.19,0.55-3.83,1.92-4.93
			c1.09-1.09,3.01-1.37,5.2-1.37h8.21v-44.6H45.4c-3.56,0-5.47-0.27-6.84-1.37c-1.37-1.09-2.19-2.74-2.19-5.2
			c0-1.92,0.55-3.56,1.64-4.65s2.74-1.64,4.65-1.64h72.79c1.92,0,3.56,0.55,4.65,1.64c1.09,1.09,1.64,2.74,1.64,4.65
			C121.74,68.68,121.19,70.6,119.55,71.42z"/>
		<path class="st1" d="M115.45,59.93H42.66c-1.92,0-3.56,0.55-4.65,1.64c-1.09,1.09-1.64,2.74-1.64,4.65c0,2.46,0.82,4.1,2.19,5.2
			c1.37,0.82,3.28,1.37,6.84,1.37h6.29v44.88h-8.21c-2.46,0-4.1,0.55-5.2,1.37c-1.37,1.09-1.92,2.74-1.92,4.93
			c0,1.92,0.55,3.56,1.64,4.65c1.09,1.09,2.74,1.64,4.65,1.64h32.56c1.92,0,3.56-0.55,4.65-1.64c1.09-1.09,1.64-2.74,1.64-4.65
			c0-2.19-0.55-3.56-1.92-4.65c-1.09-1.09-2.74-1.64-4.93-1.64h-9.3v-17.24h36.67c1.92,0,3.56-0.55,4.65-1.64
			c1.09-1.09,1.64-2.74,1.64-4.65c0-2.74-1.09-4.1-1.92-4.93c-0.82-0.55-1.64-1.09-3.01-1.09H65.37V73.06h44.06h6.29
			c1.92-0.27,3.01-0.55,3.83-1.09c1.37-1.09,2.19-2.74,2.19-5.2c0-1.92-0.55-3.56-1.64-4.65C119.01,60.47,117.36,59.93,115.45,59.93
			z"/>
		<path class="st1" d="M100.95,18.88l2.19-1.09L49.78,0l14.78,16.42c-4.38,0.82-8.76,1.92-12.86,3.28
			c-12.86,4.38-24.35,12.04-33.38,22.71C5.17,58.01-1.39,77.71,0.25,97.96c1.64,21.62,12.31,40.22,27.64,53.09
			c13.41,11.22,30.65,18.06,49.25,18.06c42.41,0,76.89-34.48,76.89-76.89C154.3,58.01,131.87,29.01,100.95,18.88z M55.8,4.1
			l41.87,14.23L58.53,38.86l12.86-18.61L55.8,4.1z M77.41,158.71c-36.67,0-66.49-29.83-66.49-66.49c0-32.29,22.99-59.11,53.36-65.13
			L53.33,43.78l33.66-17.51c32.29,4.65,57.19,32.29,57.19,65.67C143.91,128.88,114.08,158.71,77.41,158.71z"/>
		<polygon class="st2" points="55.8,4.1 71.39,20.25 97.66,18.33 		"/>
		<polygon class="st3" points="97.66,18.33 71.39,20.25 58.53,38.86 		"/>
	</g>
</g>
</svg>
